<svg xmlns="http://www.w3.org/2000/svg" viewBox="0 0 512 512" role="img" aria-labelledby="title desc">
  <title id="title">LapyTrack Logo</title>
  <desc id="desc">Minimal black app icon with a white laptop and tracking line.</desc>
  <rect width="512" height="512" rx="112" fill="#0B0B0C"/>
  <path fill="#FFFFFF" d="M154 150c0-24.3 19.7-44 44-44h116c24.3 0 44 19.7 44 44v126H154V150Zm44-6c-3.3 0-6 2.7-6 6v88h128v-88c0-3.3-2.7-6-6-6H198Z"/>
  <path fill="#FFFFFF" d="M118 302h276l18 42c4.5 10.5-3.2 22-14.7 22H114.7c-11.5 0-19.2-11.5-14.7-22l18-42Z"/>
  <path fill="#0B0B0C" d="M220 324h72c6.6 0 12 5.4 12 12s-5.4 12-12 12h-72c-6.6 0-12-5.4-12-12s5.4-12 12-12Z"/>
  <path fill="#FFFFFF" d="M256 168c48.6 0 88 39.4 88 88h-38c0-27.6-22.4-50-50-50v-38Z"/>
  <circle cx="256" cy="187" r="18" fill="#FFFFFF"/>
</svg>
