<svg xmlns="http://www.w3.org/2000/svg" viewBox="0 0 512 512" role="img" aria-labelledby="title desc">
  <title id="title">LapyTrack Logo</title>
  <desc id="desc">A black square mark with a white chip, circuit traces, and KC monogram.</desc>
  <rect width="512" height="512" rx="72" fill="#0b0b0c"/>
  <path fill="#ffffff" fill-rule="evenodd" d="M166 118h180c26.51 0 48 21.49 48 48v180c0 26.51-21.49 48-48 48H166c-26.51 0-48-21.49-48-48V166c0-26.51 21.49-48 48-48Zm0 28c-11.05 0-20 8.95-20 20v180c0 11.05 8.95 20 20 20h180c11.05 0 20-8.95 20-20V166c0-11.05-8.95-20-20-20H166Z"/>
  <g fill="#ffffff">
    <rect x="88" y="170" width="44" height="20" rx="10"/>
    <rect x="88" y="246" width="44" height="20" rx="10"/>
    <rect x="88" y="322" width="44" height="20" rx="10"/>
    <rect x="380" y="170" width="44" height="20" rx="10"/>
    <rect x="380" y="246" width="44" height="20" rx="10"/>
    <rect x="380" y="322" width="44" height="20" rx="10"/>
    <rect x="170" y="88" width="20" height="44" rx="10"/>
    <rect x="246" y="88" width="20" height="44" rx="10"/>
    <rect x="322" y="88" width="20" height="44" rx="10"/>
    <rect x="170" y="380" width="20" height="44" rx="10"/>
    <rect x="246" y="380" width="20" height="44" rx="10"/>
    <rect x="322" y="380" width="20" height="44" rx="10"/>
  </g>
  <path fill="#ffffff" d="M183 190c9.39 0 17 7.61 17 17v34.9l73.2-51.85c7.66-5.43 18.27-3.62 23.7 4.04s3.62 18.27-4.04 23.7L242.28 253.6l54.47 41.8c7.45 5.72 8.85 16.39 3.13 23.84s-16.39 8.85-23.84 3.13L200 264.02V305c0 9.39-7.61 17-17 17s-17-7.61-17-17v-98c0-9.39 7.61-17 17-17Z"/>
  <circle cx="320" cy="256" r="70" fill="#ffffff"/>
  <circle cx="320" cy="256" r="38" fill="#0b0b0c"/>
  <rect x="320" y="176" width="88" height="160" fill="#0b0b0c"/>
  <circle cx="372" cy="140" r="18" fill="#16a34a"/>
  <circle cx="140" cy="372" r="18" fill="#2563eb"/>
</svg>
